<svg xmlns="http://www.w3.org/2000/svg" fill="#8c61a8" viewBox="0 0 128 128">
    <path d="M41.2191 94.686C40.4708 94.686 39.7364 94.4049 39.1758 93.8824C22.3791 78.1917 13.6767 61.0525 14.0092 44.318C14.1702 36.1915 17.0173 29.3165 22.2413 24.4404C28.6155 18.4879 37.1395 16.7245 42.9925 17.0452C54.9138 17.7123 60.9949 24.522 63.8861 29.5579C66.7761 24.522 72.8572 17.7123 84.7786 17.0452C86.6434 16.9402 88.3797 17.0184 89.9377 17.2761C91.0091 17.4522 91.8118 18.3642 91.8581 19.457C91.8964 20.3527 91.4192 21.1691 90.6662 21.5819C90.0859 22.0344 83.0341 27.8167 84.8735 36.0609C85.4307 38.566 87.9234 40.4553 90.6489 42.3307C96.7265 46.507 90.1995 57.9503 83.8345 67.4505C74.626 81.1948 70.0645 83.4573 67.4352 83.9646C65.9108 84.2585 64.471 83.9751 63.2699 83.1506L62.7868 82.817C59.2274 80.3562 56.8713 78.9462 54.1331 80.1312C51.8825 81.105 49.7315 82.9395 47.555 85.7362C47.0882 86.3659 44.5944 90.3965 44.1288 92.3744C43.8844 93.4089 43.1025 94.2463 42.0867 94.5565C41.8029 94.644 41.5098 94.686 41.2191 94.686ZM41.5874 21.6262C36.7561 21.6262 30.2811 23.2345 25.3618 27.8284C21.0112 31.8892 18.7351 37.4686 18.5973 44.4113C18.2312 62.824 29.9418 78.4762 40.5519 88.829C41.7924 86.0604 43.7245 83.1681 43.9376 82.8963C46.6006 79.4676 49.3435 77.1747 52.3215 75.886C57.5791 73.6107 61.9065 76.6033 65.3849 79.0092L65.8587 79.3358C65.949 79.3976 66.1158 79.5142 66.5734 79.4267C67.851 79.1795 71.7209 77.268 80.0306 64.8673C91.023 48.4593 88.0925 46.1676 88.0612 46.1466C85.4064 44.3191 81.3963 41.5609 80.3955 37.0732C78.9604 30.6378 81.4947 25.2381 84.2017 21.7172C71.0502 22.8473 67.0147 32.8012 66.0799 35.879C65.7846 36.8493 64.8938 37.5129 63.8849 37.5129C62.876 37.5129 61.9865 36.8493 61.6911 35.8778C60.739 32.7383 56.554 22.4321 42.7388 21.6589C42.367 21.6379 41.9824 21.6262 41.5874 21.6262ZM90.1334 21.793C90.1334 21.7942 90.1334 21.7942 90.1334 21.7942V21.793Z" />
    <path d="M62.7896 111C61.6972 111 60.4996 110.775 59.2452 110.164C56.7608 108.957 51.6231 105.707 49.5368 103.561C48.6516 102.651 48.6689 101.191 49.5727 100.301C50.4775 99.4107 51.9286 99.427 52.8138 100.337C54.4199 101.989 59.0612 104.953 61.2401 106.012C62.3603 106.558 63.5371 106.662 65.6396 105.406C74.9697 99.8251 83.9236 92.5013 91.5342 84.2264C99.8714 75.1575 109.741 60.8265 109.407 44.0578C109.285 37.9052 107.108 29.2367 101.377 25.0574C100.352 24.31 100.124 22.8676 100.865 21.8361C101.609 20.8058 103.042 20.5765 104.067 21.3227C111.155 26.4905 113.84 36.408 113.991 43.9658C114.354 62.2713 103.809 77.6663 94.8991 87.3568C86.9935 95.9542 77.6866 103.566 67.9817 109.37C67.1855 109.847 65.2589 111 62.7896 111Z" />
</svg>
