<svg xmlns="http://www.w3.org/2000/svg" viewBox="0 0 128 128" width="128" height="128" fill="#8B60A6">
<path d="M59.3926 118.314C56.0638 117.272 47.0261 111.102 46.3006 109.377C45.7326 108.026 46.2499 106.697 47.5928 106.056C48.8074 105.477 48.8712 105.506 52.7375 108.436C55.775 110.737 60.1014 113.275 61.4048 113.519C62.992 113.817 64.681 113.052 69.6891 109.765C80.9178 102.396 91.1686 93.3488 98.9586 84.0497C101.364 81.1786 103.534 78.2834 105.427 75.4062C116.839 58.0547 119.504 39.3904 112.496 25.8949C111.666 24.2964 110.455 22.7235 108.634 20.8788C105.664 17.8704 105.349 16.9697 106.767 15.5516C107.886 14.4321 109.111 14.5385 110.909 15.9113C118.147 21.4379 122.585 34.5386 121.362 46.7662C120.273 57.656 116.361 68.2042 109.688 78.2435C100.661 91.8235 86.288 105.433 70.5836 115.27C65.1349 118.683 62.6928 119.347 59.3926 118.314ZM30.9398 94.3662C17.8679 81.1255 9.90131 67.4938 6.86598 53.173C6.11366 49.6235 6.01498 48.4357 6.00138 42.7662C5.98765 37.0395 6.06525 36.0654 6.73898 33.5076C9.83444 21.7557 17.6322 14.0659 29.6826 10.8816C32.1739 10.2232 33.2401 10.129 37.9812 10.1482C44.3834 10.1742 46.7428 10.6746 51.4968 13.0148C56.1753 15.3178 59.5007 18.2378 62.4792 22.6581L63.6173 24.3471L65.3195 21.9669C71.1016 13.882 79.8962 9.71624 90.552 10.015C94.4393 10.124 94.5319 10.1437 95.289 11.024C96.5934 12.5407 96.337 13.3806 93.8075 15.8769C89.5021 20.1259 87.7493 23.7933 87.762 28.5262C87.7742 33.0783 88.6637 34.6328 93.1679 37.9737C96.6869 40.5839 97.4285 41.8452 97.3973 45.1665C97.3525 49.9205 94.2202 56.729 87.3129 67.0862C76.7666 82.8997 69.3729 89.0602 64.0358 86.4808C63.2577 86.1047 61.6132 85.1461 60.3812 84.3504C57.7626 82.6592 55.2318 81.8179 53.7358 82.1414C49.1162 83.1401 43.4509 89.269 40.8459 96.0862C39.9011 98.5587 39.0568 99.2462 36.9653 99.2462C35.8319 99.2462 35.4617 98.9464 30.9398 94.3662ZM38.3012 89.6035C41.2143 84.3196 45.3649 80.1982 49.9812 78.0054C51.7775 77.1521 52.4103 77.0188 54.6212 77.0279C57.7023 77.0407 59.904 77.847 63.7474 80.3703C65.6091 81.5925 66.4846 81.9895 67.0214 81.8548C70.2564 81.0429 76.2545 74.4324 83.2144 64.0084C88.7724 55.6841 91.8305 49.3807 92.1408 45.6093L92.3019 43.6525L90.7415 42.5804C84.9078 38.572 82.5867 34.6121 82.5976 28.6862C82.6056 24.3606 83.9266 20.2101 86.4735 16.5083L87.4855 15.0373L85.9333 15.2523C81.4832 15.8686 77.3636 17.5224 74.0803 20.0105C70.8236 22.4785 68.4442 25.7052 66.6215 30.1254C65.5754 32.6621 64.9903 33.3004 63.6966 33.316C62.4869 33.3306 61.6262 32.4623 60.8522 30.4462C59.6955 27.4333 58.0021 24.7203 55.8624 22.4521C50.882 17.1726 44.3007 14.7489 36.1238 15.183C31.804 15.4123 28.7649 16.2084 24.8455 18.1376C18.2067 21.4052 13.8608 26.754 11.8547 34.1262C10.8172 37.9391 10.8138 46.7122 11.8479 51.8625C14.1088 63.1228 20.0354 74.4201 29.2353 85.0062C33.0045 89.3433 36.045 92.5284 36.4044 92.5159C36.5676 92.5103 37.4212 91.1997 38.3012 89.6035Z"/>
</svg>