<?xml version="1.0" encoding="utf-8"?>
<!-- Generator: Adobe Illustrator 16.0.3, SVG Export Plug-In . SVG Version: 6.00 Build 0)  -->
<!DOCTYPE svg PUBLIC "-//W3C//DTD SVG 1.1//EN" "http://www.w3.org/Graphics/SVG/1.1/DTD/svg11.dtd">
<svg version="1.1" id="Layer_1" xmlns="http://www.w3.org/2000/svg" xmlns:xlink="http://www.w3.org/1999/xlink" x="0px" y="0px"
	 width="621px" height="346px" viewBox="0 0 621 346" enable-background="new 0 0 621 346" xml:space="preserve">
<g>
	<path fill-rule="evenodd" clip-rule="evenodd" fill="#FFFFFF" d="M137.415,100.156c3.943-2.56,5.365-4.605,3.5-9.027
		c-4.929-11.688-2.687-27.15,9.387-36.404c10.596-8.123,26.533-8.233,37.21,0.039c5.888,4.562,5.537,4.008,11.89-0.021
		c4.605-2.921,10.171-5.303,15.526-5.871c13.815-1.464,24.722,5.487,30.411,17.977c5.187,11.39,2.781,24.724-6.446,34.119
		c-13.651,13.899-27.431,27.673-41.18,41.476c-4.275,4.291-4.981,4.28-9.268-0.005c-10.252-10.251-20.491-20.518-30.704-30.81
		c-1.767-1.781-3.3-2.541-5.451-0.388c-2.024,2.027-1.808,3.498,0.127,5.417c12.297,12.2,24.572,24.423,36.735,36.756
		c3.058,3.1,5.411,2.872,8.377-0.131c15.569-15.769,31.318-31.361,46.873-47.144c7.336-7.444,10.835-16.417,10.784-27.057
		c-0.075-15.398-7.065-26.684-20.18-33.726c-12.455-6.688-25.338-6.089-37.533,1.452c-3.023,1.869-5.294,1.985-8.569-0.001
		c-22.837-13.854-51.585-1.671-57.196,24.236C129.485,81.31,130.933,91.129,137.415,100.156z M190.582,64.362
		c-2.18-2.689-5.402-3.796-5.402-3.796s-2.334,1.866-3.59,3.192c-14.21,14.994-28.999,29.438-43.465,44.192
		c-2.666,2.72-4.821,2.326-7.193-0.069C116.435,93.24,101.748,78.78,87.504,63.895c-10.518-10.992-10.458-29.299-0.509-40.692
		c10.533-12.063,29.315-13.86,41.948-3.813c3.788,3.013,6.556,3.388,10.927,0.266c4.413-3.151,10.028-5.583,15.382-6.273
		c16.668-2.149,30.034,8.006,33.454,24.528c0.626,3.024,1.91,5.24,5.143,4.546c3.296-0.707,2.79-3.368,2.257-6.036
		c-5.484-27.47-34.81-38.856-57.254-25.386c-3.498,2.099-5.852,1.932-8.968-0.1c-9.536-6.218-20.162-6.908-30.617-3.887
		c-27.657,7.994-36.492,42.396-16.37,62.985c15.373,15.729,30.976,31.234,46.498,46.818c4.419,4.437,5.477,4.471,9.769,0.187
		c14.978-14.95,29.946-29.91,44.847-44.937C186.411,69.682,188.445,66.898,190.582,64.362z M210.911,167.052
		c-9.383,0-17.653-0.138-25.907,0.157c-1.157,0.042-2.963,2.052-3.241,3.403c-2.504,12.187-4.717,24.433-7.058,36.654
		c-0.522,2.727,0.313,4.093,3.262,4.045c4.817-0.078,9.656,0.232,14.441-0.16c1.521-0.124,3.651-1.664,4.217-3.072
		c2.598-6.46,4.768-13.094,7.04-19.684C205.979,181.685,208.231,174.954,210.911,167.052z M194.441,130.446
		c9.111,0.109,15.914-6.432,16.11-15.49c0.194-8.977-6.527-15.747-15.688-15.8c-8.946-0.053-15.604,6.358-15.772,15.188
		C178.915,123.544,185.392,130.338,194.441,130.446z"/>
	<path fill-rule="evenodd" clip-rule="evenodd" fill="#73CCE3" d="M137.212,100.207c-6.482-9.027-7.93-18.847-5.707-29.114
		c5.61-25.907,34.359-38.09,57.196-24.236c3.275,1.987,5.546,1.871,8.569,0.001c12.195-7.542,25.079-8.14,37.533-1.452
		c13.114,7.042,20.105,18.328,20.18,33.726c0.052,10.64-3.447,19.613-10.784,27.057c-15.555,15.783-31.304,31.375-46.873,47.144
		c-2.966,3.003-5.319,3.231-8.377,0.131c-12.163-12.333-24.438-24.557-36.735-36.756c-1.936-1.919-2.151-3.39-0.127-5.417
		c2.151-2.153,3.684-1.393,5.451,0.388c10.213,10.292,20.452,20.558,30.704,30.81c4.286,4.285,4.992,4.296,9.268,0.005
		c13.75-13.803,27.529-27.576,41.18-41.476c9.227-9.395,11.633-22.729,6.446-34.119c-5.688-12.49-16.596-19.441-30.411-17.977
		c-5.355,0.568-10.921,2.95-15.526,5.871c-6.354,4.029-6.002,4.583-11.89,0.021c-10.677-8.272-26.614-8.162-37.21-0.039
		c-12.074,9.254-14.315,24.716-9.387,36.404c0.647,1.533,1.69,4.278,1.944,4.532C142.655,95.711,139.788,98.535,137.212,100.207z"/>
	<path fill-rule="evenodd" clip-rule="evenodd" fill="#73CCE3" d="M190.379,64.413c-2.137,2.536-4.171,5.32-6.571,7.74
		c-14.9,15.027-29.869,29.987-44.847,44.937c-4.292,4.284-5.35,4.25-9.769-0.187c-15.522-15.584-31.125-31.089-46.498-46.818
		C62.572,49.495,71.407,15.092,99.064,7.099c10.455-3.021,21.082-2.331,30.617,3.887c3.116,2.032,5.47,2.199,8.968,0.1
		c22.445-13.471,51.77-2.084,57.254,25.386c0.533,2.668,1.04,5.329-2.257,6.036c-3.233,0.693-4.517-1.522-5.143-4.546
		c-3.419-16.521-16.785-26.677-33.454-24.528c-5.354,0.691-10.97,3.122-15.382,6.273c-4.372,3.123-7.139,2.747-10.927-0.266
		c-12.633-10.047-31.415-8.251-41.948,3.813c-9.949,11.394-10.009,29.701,0.509,40.692c14.244,14.885,28.931,29.345,43.428,43.986
		c2.372,2.396,4.527,2.79,7.193,0.069c14.466-14.754,29.255-29.199,43.465-44.192c1.533-1.617,3.962-3.356,4.056-3.374
		C185.442,60.435,188.45,62.034,190.379,64.413z"/>
	<path fill-rule="evenodd" clip-rule="evenodd" fill="#7EC354" d="M210.708,167.103c-2.68,7.902-4.933,14.633-7.246,21.343
		c-2.272,6.59-4.441,13.224-7.04,19.684c-0.566,1.408-2.696,2.948-4.217,3.072c-4.785,0.393-9.624,0.082-14.441,0.16
		c-2.949,0.048-3.784-1.318-3.262-4.045c2.341-12.221,4.554-24.467,7.058-36.654c0.278-1.352,2.084-3.362,3.241-3.403
		C193.055,166.965,201.325,167.103,210.708,167.103z"/>
	<path fill-rule="evenodd" clip-rule="evenodd" fill="#7EC354" d="M194.238,130.497c-9.05-0.108-15.526-6.902-15.35-16.102
		c0.169-8.83,6.827-15.241,15.772-15.188c9.161,0.053,15.882,6.823,15.688,15.8C210.152,124.065,203.349,130.606,194.238,130.497z"
		/>
</g>
<g>
	<path fill="#1A85AC" d="M6.829,142.461H30.73c4.897,0,8.942,0.465,12.137,1.395c3.192,0.93,5.719,2.201,7.579,3.813
		c1.86,1.613,3.146,3.503,3.86,5.673c0.712,2.171,1.069,4.526,1.069,7.068c0,2.604-0.558,5.054-1.674,7.347
		c-1.116,2.294-3.225,4.248-6.324,5.859c1.983,1.055,3.611,2.155,4.883,3.302c1.27,1.147,2.262,2.371,2.976,3.673
		c0.712,1.303,1.209,2.637,1.488,3.999c0.279,1.365,0.418,2.729,0.418,4.093c0,2.79-0.418,5.426-1.255,7.904
		c-0.837,2.48-2.232,4.62-4.185,6.417c-1.953,1.8-4.511,3.225-7.673,4.278c-3.162,1.055-7.068,1.581-11.718,1.581H6.829V142.461z
		 M32.311,168.78c3.658,0,6.168-0.682,7.533-2.046c1.363-1.363,2.046-3.316,2.046-5.859c0-2.728-0.884-4.665-2.65-5.813
		c-1.767-1.146-4.759-1.721-8.975-1.721H20.221v15.438H32.311z M31.846,197.982c2.293,0,4.199-0.217,5.719-0.651
		c1.519-0.433,2.744-1.069,3.674-1.906c0.93-0.837,1.581-1.813,1.953-2.93s0.558-2.386,0.558-3.813c0-2.852-0.776-5.022-2.325-6.511
		c-1.55-1.487-4.278-2.231-8.184-2.231h-13.02v18.042H31.846z"/>
	<path fill="#1A85AC" d="M107.408,193.704c-0.869,5.457-3.055,9.595-6.557,12.416c-3.503,2.82-8.603,4.231-15.298,4.231
		c-8.061,0-14.122-2.232-18.182-6.696c-4.062-4.464-6.092-10.788-6.092-18.972c0-4.093,0.589-7.733,1.767-10.928
		c1.177-3.192,2.836-5.906,4.976-8.138s4.696-3.92,7.672-5.068c2.976-1.146,6.262-1.721,9.858-1.721
		c7.44,0,13.034,2.139,16.786,6.417c3.75,4.278,5.626,10.044,5.626,17.298v5.208H74.299c0.124,3.906,1.116,6.961,2.976,9.161
		c1.86,2.201,4.65,3.301,8.37,3.301c5.146,0,8.184-2.169,9.114-6.51H107.408z M95.411,179.196c0-3.348-0.823-5.952-2.465-7.812
		c-1.643-1.86-4.201-2.791-7.672-2.791c-1.736,0-3.255,0.279-4.557,0.837c-1.302,0.558-2.403,1.318-3.301,2.279
		c-0.899,0.962-1.597,2.078-2.093,3.348c-0.497,1.271-0.776,2.65-0.837,4.139H95.411z"/>
	<path fill="#1A85AC" d="M117.423,170.454h-7.626v-10.137h7.626v-1.581c0-2.976,0.433-5.548,1.302-7.719
		c0.868-2.169,2.061-3.937,3.581-5.301c1.519-1.363,3.301-2.372,5.348-3.022c2.046-0.651,4.278-0.977,6.696-0.977
		c1.549,0,3.177,0.093,4.882,0.279c1.705,0.186,3.456,0.558,5.255,1.116l-1.767,9.486c-1.985-0.496-3.875-0.744-5.673-0.744
		c-1.674,0-3.194,0.481-4.557,1.441c-1.365,0.962-2.046,2.682-2.046,5.162v1.86h11.253v10.137h-11.253v38.409h-13.02V170.454z"/>
	<path fill="#1A85AC" d="M145.676,160.317h12.648v6.789c1.611-2.542,3.564-4.448,5.859-5.72c2.293-1.27,4.711-1.906,7.254-1.906
		c1.24,0,2.263,0.046,3.069,0.139c0.805,0.093,1.519,0.202,2.139,0.326l-1.581,11.811c-1.488-0.371-3.317-0.558-5.487-0.558
		c-1.427,0-2.79,0.171-4.092,0.512c-1.302,0.341-2.48,0.977-3.534,1.906c-1.116,0.992-1.938,2.108-2.464,3.348
		c-0.528,1.241-0.791,2.512-0.791,3.813v28.086h-13.02V160.317z"/>
	<path fill="#1A85AC" d="M260.43,193.704c-0.869,5.457-3.055,9.595-6.557,12.416c-3.503,2.82-8.603,4.231-15.298,4.231
		c-8.061,0-14.122-2.232-18.182-6.696c-4.062-4.464-6.092-10.788-6.092-18.972c0-4.093,0.589-7.733,1.767-10.928
		c1.177-3.192,2.836-5.906,4.976-8.138s4.696-3.92,7.672-5.068c2.976-1.146,6.262-1.721,9.858-1.721
		c7.44,0,13.034,2.139,16.786,6.417c3.75,4.278,5.626,10.044,5.626,17.298v5.208h-33.666c0.124,3.906,1.116,6.961,2.976,9.161
		c1.86,2.201,4.65,3.301,8.37,3.301c5.146,0,8.184-2.169,9.114-6.51H260.43z M248.433,179.196c0-3.348-0.823-5.952-2.465-7.812
		c-1.643-1.86-4.201-2.791-7.672-2.791c-1.736,0-3.255,0.279-4.557,0.837c-1.302,0.558-2.403,1.318-3.301,2.279
		c-0.899,0.962-1.597,2.078-2.093,3.348c-0.497,1.271-0.776,2.65-0.837,4.139H248.433z"/>
	<path fill="#1A85AC" d="M265.888,160.317h12.648v6.696c1.921-2.851,4.2-4.929,6.835-6.231c2.634-1.302,5.378-1.953,8.23-1.953
		c5.518,0,9.609,1.442,12.276,4.325c2.665,2.883,3.999,7.425,3.999,13.625v32.085h-13.02v-30.318c0-3.408-0.651-5.733-1.953-6.975
		c-1.302-1.24-3.039-1.86-5.208-1.86c-1.674,0-3.116,0.249-4.325,0.744c-1.209,0.497-2.341,1.209-3.395,2.14
		c-0.869,0.868-1.597,1.906-2.186,3.115c-0.59,1.209-0.883,2.526-0.883,3.952v29.202h-13.02V160.317z"/>
	<path fill="#1A85AC" d="M349.475,202.446c-3.719,5.271-8.74,7.905-15.064,7.905c-6.822,0-11.904-2.293-15.252-6.882
		c-3.35-4.588-5.023-10.942-5.023-19.065c0-3.781,0.479-7.238,1.441-10.369c0.961-3.13,2.34-5.828,4.139-8.091
		c1.799-2.263,4-4.014,6.604-5.254c2.604-1.24,5.549-1.86,8.836-1.86c2.418,0,4.818,0.435,7.207,1.302
		c2.385,0.869,4.633,2.543,6.742,5.022v-22.692h13.02v66.402h-12.648V202.446z M349.197,184.032c0-3.1-0.266-5.58-0.791-7.44
		c-0.527-1.859-1.381-3.378-2.559-4.557c-1.115-1.116-2.34-1.844-3.672-2.186c-1.334-0.34-2.65-0.511-3.953-0.511
		c-1.428,0-2.775,0.279-4.045,0.837c-1.271,0.558-2.389,1.426-3.35,2.604c-0.961,1.179-1.719,2.729-2.277,4.65
		s-0.838,4.217-0.838,6.882c0,2.915,0.264,5.348,0.791,7.3c0.525,1.953,1.256,3.534,2.186,4.743s2.014,2.078,3.256,2.604
		c1.238,0.527,2.57,0.79,3.998,0.79c3.1,0,5.641-0.897,7.627-2.696c1.238-1.24,2.152-2.744,2.742-4.511
		c0.59-1.768,0.885-4.046,0.885-6.836V184.032z"/>
	<path fill="#1A85AC" d="M412.715,193.704c-0.869,5.457-3.054,9.595-6.557,12.416c-3.503,2.82-8.603,4.231-15.298,4.231
		c-8.061,0-14.122-2.232-18.182-6.696c-4.062-4.464-6.092-10.788-6.092-18.972c0-4.093,0.589-7.733,1.768-10.928
		c1.177-3.192,2.836-5.906,4.976-8.138c2.139-2.232,4.696-3.92,7.672-5.068c2.977-1.146,6.262-1.721,9.858-1.721
		c7.439,0,13.034,2.139,16.786,6.417c3.751,4.278,5.627,10.044,5.627,17.298v5.208h-33.666c0.123,3.906,1.115,6.961,2.976,9.161
		c1.86,2.201,4.65,3.301,8.37,3.301c5.146,0,8.184-2.169,9.114-6.51H412.715z M400.718,179.196c0-3.348-0.822-5.952-2.464-7.812
		c-1.644-1.86-4.201-2.791-7.673-2.791c-1.736,0-3.255,0.279-4.557,0.837c-1.303,0.558-2.403,1.318-3.302,2.279
		c-0.899,0.962-1.597,2.078-2.093,3.348c-0.497,1.271-0.775,2.65-0.837,4.139H400.718z"/>
	<path fill="#1A85AC" d="M417.986,160.317h12.648v6.789c1.611-2.542,3.564-4.448,5.859-5.72c2.293-1.27,4.711-1.906,7.254-1.906
		c1.239,0,2.262,0.046,3.068,0.139c0.806,0.093,1.519,0.202,2.14,0.326l-1.581,11.811c-1.488-0.371-3.317-0.558-5.487-0.558
		c-1.427,0-2.79,0.171-4.092,0.512s-2.48,0.977-3.534,1.906c-1.116,0.992-1.938,2.108-2.465,3.348
		c-0.527,1.241-0.79,2.512-0.79,3.813v28.086h-13.021V160.317z"/>
	<path fill="#1A85AC" d="M461.231,193.425c0.433,2.853,1.581,4.713,3.44,5.58c1.86,0.869,4.093,1.303,6.696,1.303
		c3.1,0,5.315-0.387,6.649-1.163c1.333-0.774,2-2.029,2-3.767c0-1.239-0.419-2.324-1.256-3.255c-0.837-0.93-2.434-1.581-4.789-1.953
		l-6.696-1.115c-5.891-0.931-10.276-2.526-13.159-4.79c-2.884-2.263-4.325-5.688-4.325-10.276c0-2.355,0.512-4.464,1.535-6.324
		c1.022-1.86,2.464-3.441,4.324-4.743c1.86-1.302,4.076-2.309,6.649-3.022c2.572-0.712,5.408-1.07,8.51-1.07
		c3.843,0,7.067,0.388,9.672,1.163c2.604,0.776,4.727,1.813,6.37,3.116c1.643,1.302,2.883,2.853,3.721,4.65
		c0.837,1.799,1.441,3.719,1.813,5.766l-11.625,1.488c-0.559-2.232-1.535-3.875-2.93-4.929c-1.396-1.054-3.644-1.581-6.743-1.581
		c-1.736,0-3.178,0.139-4.324,0.418c-1.147,0.279-2.046,0.636-2.697,1.069c-0.65,0.435-1.115,0.93-1.395,1.487
		c-0.279,0.559-0.419,1.086-0.419,1.582c0,1.55,0.479,2.683,1.441,3.395c0.961,0.713,2.837,1.317,5.627,1.813l6.138,1.022
		c3.409,0.559,6.231,1.271,8.463,2.14c2.232,0.868,4.014,1.938,5.348,3.208c1.333,1.271,2.263,2.775,2.79,4.511
		c0.526,1.736,0.791,3.752,0.791,6.045c0,4.589-1.736,8.263-5.208,11.021c-3.474,2.758-8.835,4.139-16.089,4.139
		c-2.915,0-5.689-0.265-8.324-0.791c-2.636-0.527-4.991-1.441-7.067-2.743c-2.078-1.302-3.783-3.037-5.115-5.208
		c-1.334-2.17-2.093-4.897-2.278-8.185H461.231z"/>
	<path fill="#1A85AC" d="M174.807,222.461h15.624l10.695,46.128l10.881-45.756h14.694l11.346,45.756l10.044-46.128h14.88
		l-18.042,66.402h-13.485l-12.369-49.104l-11.997,49.104h-13.113L174.807,222.461z"/>
	<path fill="#1A85AC" d="M284.695,290.352c-7.812,0-13.857-2.232-18.135-6.696c-4.278-4.464-6.417-10.849-6.417-19.158
		c0-3.967,0.573-7.547,1.721-10.741c1.146-3.192,2.79-5.89,4.929-8.091c2.139-2.2,4.727-3.891,7.765-5.068
		c3.037-1.178,6.417-1.768,10.137-1.768c3.781,0,7.191,0.59,10.23,1.768c3.037,1.178,5.626,2.868,7.766,5.068
		c2.139,2.201,3.766,4.898,4.882,8.091c1.116,3.194,1.674,6.774,1.674,10.741c0,4.031-0.574,7.643-1.72,10.835
		c-1.148,3.193-2.79,5.905-4.929,8.138c-2.139,2.231-4.729,3.938-7.766,5.114C291.793,289.762,288.415,290.352,284.695,290.352z
		 M284.695,279.936c3.72,0,6.494-1.333,8.323-3.999c1.828-2.665,2.744-6.479,2.744-11.439c0-4.959-0.916-8.742-2.744-11.346
		c-1.829-2.604-4.604-3.906-8.323-3.906c-3.72,0-6.496,1.302-8.324,3.906c-1.829,2.604-2.743,6.387-2.743,11.346
		c0,5.022,0.898,8.852,2.697,11.485C278.122,278.619,280.912,279.936,284.695,279.936z"/>
	<path fill="#1A85AC" d="M314.455,240.317h12.648v6.789c1.611-2.542,3.564-4.448,5.859-5.72c2.293-1.27,4.711-1.906,7.254-1.906
		c1.239,0,2.262,0.046,3.068,0.14c0.806,0.093,1.519,0.201,2.14,0.325l-1.581,11.811c-1.488-0.371-3.317-0.558-5.487-0.558
		c-1.427,0-2.79,0.172-4.092,0.512c-1.302,0.341-2.48,0.977-3.534,1.906c-1.116,0.992-1.938,2.108-2.465,3.348
		c-0.527,1.241-0.79,2.512-0.79,3.813v28.086h-13.02V240.317z"/>
	<path fill="#1A85AC" d="M348.725,222.461h13.02v66.402h-13.02V222.461z"/>
	<path fill="#1A85AC" d="M402.626,282.446c-3.72,5.271-8.741,7.905-15.065,7.905c-6.821,0-11.904-2.293-15.252-6.882
		c-3.349-4.588-5.022-10.942-5.022-19.065c0-3.781,0.479-7.238,1.441-10.369c0.961-3.131,2.34-5.827,4.139-8.092
		c1.798-2.262,3.999-4.013,6.604-5.254c2.604-1.239,5.548-1.86,8.835-1.86c2.418,0,4.819,0.435,7.207,1.302
		c2.386,0.869,4.634,2.543,6.742,5.022v-22.692h13.021v66.402h-12.648V282.446z M402.348,264.032c0-3.1-0.265-5.58-0.791-7.44
		c-0.527-1.859-1.38-3.378-2.558-4.557c-1.115-1.116-2.341-1.844-3.673-2.186c-1.334-0.34-2.65-0.512-3.953-0.512
		c-1.427,0-2.775,0.279-4.045,0.837c-1.271,0.559-2.388,1.428-3.349,2.604c-0.962,1.179-1.72,2.729-2.278,4.65
		c-0.558,1.922-0.837,4.217-0.837,6.882c0,2.915,0.263,5.348,0.791,7.3c0.525,1.953,1.255,3.534,2.186,4.743
		c0.93,1.209,2.014,2.078,3.255,2.604c1.239,0.527,2.571,0.79,3.999,0.79c3.1,0,5.641-0.897,7.626-2.696
		c1.239-1.24,2.153-2.744,2.743-4.511c0.589-1.768,0.884-4.046,0.884-6.836V264.032z"/>
	<path fill="#1A85AC" d="M417.784,240.317h14.137l6.789,32.178l9.3-31.806h11.346l8.835,31.806l6.789-32.178h13.578l-14.136,48.546
		h-12.648l-8.648-31.992l-8.742,31.992h-12.462L417.784,240.317z"/>
	<path fill="#1A85AC" d="M490.929,222.461h13.393v11.719h-13.393V222.461z M491.115,240.317h13.02v48.546h-13.02V240.317z"/>
	<path fill="#1A85AC" d="M544.877,282.446c-3.72,5.271-8.741,7.905-15.065,7.905c-6.821,0-11.904-2.293-15.252-6.882
		c-3.349-4.588-5.022-10.942-5.022-19.065c0-3.781,0.479-7.238,1.441-10.369c0.961-3.131,2.34-5.827,4.139-8.092
		c1.798-2.262,3.999-4.013,6.604-5.254c2.604-1.239,5.548-1.86,8.835-1.86c2.418,0,4.819,0.435,7.207,1.302
		c2.386,0.869,4.634,2.543,6.742,5.022v-22.692h13.021v66.402h-12.648V282.446z M544.599,264.032c0-3.1-0.265-5.58-0.791-7.44
		c-0.527-1.859-1.38-3.378-2.558-4.557c-1.115-1.116-2.341-1.844-3.673-2.186c-1.334-0.34-2.65-0.512-3.953-0.512
		c-1.427,0-2.775,0.279-4.045,0.837c-1.271,0.559-2.388,1.428-3.349,2.604c-0.962,1.179-1.72,2.729-2.278,4.65
		c-0.558,1.922-0.837,4.217-0.837,6.882c0,2.915,0.263,5.348,0.791,7.3c0.525,1.953,1.255,3.534,2.186,4.743
		c0.93,1.209,2.014,2.078,3.255,2.604c1.239,0.527,2.571,0.79,3.999,0.79c3.1,0,5.641-0.897,7.626-2.696
		c1.239-1.24,2.153-2.744,2.743-4.511c0.589-1.768,0.884-4.046,0.884-6.836V264.032z"/>
	<path fill="#1A85AC" d="M608.86,273.704c-0.869,5.457-3.054,9.595-6.557,12.416c-3.503,2.82-8.603,4.231-15.298,4.231
		c-8.061,0-14.122-2.232-18.182-6.696c-4.062-4.464-6.092-10.788-6.092-18.972c0-4.093,0.589-7.733,1.768-10.928
		c1.177-3.192,2.836-5.905,4.976-8.138c2.139-2.231,4.696-3.921,7.672-5.068c2.977-1.146,6.262-1.721,9.858-1.721
		c7.439,0,13.034,2.14,16.786,6.417c3.751,4.278,5.627,10.044,5.627,17.298v5.208h-33.666c0.123,3.906,1.115,6.961,2.976,9.161
		c1.86,2.201,4.65,3.301,8.37,3.301c5.146,0,8.184-2.169,9.114-6.51H608.86z M596.863,259.196c0-3.348-0.822-5.952-2.464-7.812
		c-1.644-1.86-4.201-2.79-7.673-2.79c-1.736,0-3.255,0.278-4.557,0.837c-1.303,0.558-2.403,1.317-3.302,2.278
		c-0.899,0.962-1.597,2.078-2.093,3.348c-0.497,1.271-0.775,2.65-0.837,4.139H596.863z"/>
</g>
<g>
	<path fill="#7EC354" d="M27.818,320.142h13.884v14.872c-0.936,0.867-1.968,1.621-3.094,2.262c-1.127,0.642-2.306,1.179-3.536,1.612
		c-1.231,0.433-2.496,0.754-3.796,0.962c-1.3,0.208-2.574,0.312-3.822,0.312c-2.739,0-5.174-0.441-7.306-1.325
		c-2.132-0.885-3.935-2.158-5.408-3.822c-1.474-1.664-2.592-3.7-3.354-6.11c-0.763-2.409-1.144-5.139-1.144-8.189
		c0-3.12,0.416-5.894,1.248-8.32c0.832-2.426,1.984-4.472,3.458-6.136c1.473-1.664,3.232-2.93,5.278-3.796
		c2.045-0.866,4.281-1.301,6.708-1.301c2.08,0,3.917,0.252,5.512,0.755c1.594,0.503,2.955,1.222,4.082,2.157
		c1.126,0.937,2.054,2.055,2.782,3.354s1.282,2.748,1.664,4.342l-4.628,0.78c-0.278-1.074-0.65-2.063-1.118-2.964
		c-0.468-0.901-1.066-1.673-1.794-2.314c-0.728-0.641-1.621-1.135-2.678-1.481c-1.058-0.347-2.332-0.521-3.822-0.521
		c-1.942,0-3.64,0.373-5.096,1.118c-1.456,0.746-2.67,1.794-3.64,3.146c-0.971,1.353-1.708,2.974-2.21,4.862
		c-0.503,1.89-0.754,3.979-0.754,6.266c0,2.288,0.242,4.377,0.728,6.267c0.485,1.89,1.239,3.51,2.262,4.862
		c1.022,1.352,2.296,2.392,3.822,3.119c1.525,0.729,3.328,1.093,5.408,1.093c1.872,0,3.631-0.226,5.278-0.677
		c1.646-0.45,3.128-1.161,4.446-2.132v-8.892h-9.36V320.142z"/>
	<path fill="#7EC354" d="M48.935,302.098h4.524v37.128h-4.524V302.098z"/>
	<path fill="#7EC354" d="M72.683,340.058c-2.046,0-3.866-0.33-5.46-0.988c-1.595-0.658-2.947-1.594-4.056-2.808
		c-1.11-1.213-1.959-2.704-2.548-4.472c-0.59-1.769-0.884-3.744-0.884-5.929c0-2.184,0.312-4.16,0.936-5.928
		s1.508-3.276,2.652-4.524s2.522-2.21,4.134-2.886c1.612-0.676,3.406-1.014,5.382-1.014c2.01,0,3.813,0.33,5.408,0.988
		c1.594,0.658,2.955,1.604,4.082,2.834c1.126,1.23,1.984,2.713,2.574,4.445c0.589,1.734,0.884,3.692,0.884,5.876
		c0,2.219-0.304,4.212-0.91,5.98c-0.607,1.768-1.474,3.275-2.6,4.523c-1.127,1.248-2.505,2.21-4.134,2.887
		C76.513,339.72,74.693,340.058,72.683,340.058z M72.735,336.313c1.456,0,2.704-0.26,3.744-0.78c1.04-0.52,1.898-1.248,2.574-2.184
		c0.676-0.936,1.17-2.054,1.482-3.354c0.312-1.3,0.468-2.729,0.468-4.289c0-1.525-0.156-2.93-0.468-4.213
		c-0.312-1.281-0.806-2.383-1.482-3.302c-0.676-0.918-1.534-1.638-2.574-2.158c-1.04-0.52-2.288-0.779-3.744-0.779
		s-2.696,0.26-3.718,0.779c-1.023,0.521-1.872,1.24-2.548,2.158c-0.676,0.919-1.17,2.021-1.482,3.302
		c-0.312,1.283-0.468,2.704-0.468,4.265c0,1.56,0.156,2.981,0.468,4.264c0.312,1.283,0.797,2.393,1.456,3.328
		c0.658,0.936,1.508,1.664,2.548,2.184C70.031,336.054,71.279,336.313,72.735,336.313z"/>
	<path fill="#7EC354" d="M91.959,302.098h4.524v13.988c1.109-1.456,2.392-2.582,3.848-3.38s3.172-1.196,5.148-1.196
		c1.906,0,3.579,0.347,5.018,1.04c1.438,0.693,2.634,1.664,3.588,2.912c0.953,1.248,1.664,2.729,2.132,4.445
		c0.468,1.717,0.702,3.614,0.702,5.694c0,2.219-0.278,4.221-0.832,6.006c-0.555,1.786-1.352,3.302-2.392,4.55
		c-1.04,1.248-2.297,2.21-3.77,2.887c-1.474,0.676-3.129,1.014-4.966,1.014c-1.56,0-3.077-0.321-4.55-0.962
		c-1.474-0.642-2.8-1.742-3.978-3.302v3.432h-4.472V302.098z M96.431,326.537c0,1.734,0.199,3.217,0.598,4.446
		c0.398,1.231,0.944,2.245,1.638,3.042c0.693,0.798,1.525,1.378,2.496,1.742c0.97,0.364,2.028,0.546,3.172,0.546
		c1.109,0,2.14-0.19,3.094-0.572c0.953-0.381,1.776-0.996,2.47-1.846c0.693-0.849,1.239-1.95,1.638-3.302
		c0.398-1.353,0.598-2.998,0.598-4.94c0-1.976-0.217-3.631-0.65-4.966c-0.434-1.334-0.997-2.4-1.69-3.198
		c-0.694-0.797-1.482-1.369-2.366-1.716c-0.884-0.346-1.794-0.52-2.73-0.52c-1.179,0-2.271,0.199-3.276,0.598
		c-1.006,0.399-1.881,0.988-2.626,1.768c-0.746,0.78-1.326,1.769-1.742,2.965c-0.416,1.195-0.624,2.573-0.624,4.134V326.537z"/>
	<path fill="#7EC354" d="M139.985,335.533c-0.971,1.18-2.202,2.193-3.692,3.042c-1.491,0.85-3.346,1.274-5.564,1.274
		c-1.352,0-2.592-0.165-3.718-0.494c-1.127-0.329-2.098-0.832-2.912-1.508c-0.815-0.676-1.448-1.517-1.898-2.522
		c-0.451-1.005-0.676-2.184-0.676-3.535c0-1.838,0.39-3.328,1.17-4.473c0.78-1.144,1.82-2.045,3.12-2.704
		c1.3-0.658,2.764-1.126,4.394-1.403c1.629-0.277,3.31-0.45,5.044-0.521l4.628-0.156v-1.04c0-2.287-0.486-3.934-1.456-4.939
		c-0.971-1.005-2.548-1.508-4.732-1.508c-2.15,0-3.727,0.355-4.732,1.065c-1.006,0.711-1.664,1.69-1.976,2.938l-4.108-0.468
		c0.485-2.462,1.646-4.256,3.484-5.383c1.837-1.126,4.333-1.689,7.488-1.689c1.941,0,3.579,0.233,4.914,0.702
		c1.334,0.468,2.418,1.136,3.25,2.002s1.43,1.941,1.794,3.224c0.364,1.283,0.546,2.722,0.546,4.316v17.472h-4.368V335.533z
		 M139.881,325.758l-4.316,0.156c-1.838,0.069-3.363,0.242-4.576,0.52c-1.214,0.278-2.176,0.65-2.886,1.118
		c-0.711,0.468-1.214,1.049-1.508,1.742c-0.295,0.693-0.442,1.49-0.442,2.392c0,1.352,0.407,2.436,1.222,3.25
		c0.814,0.815,2.158,1.222,4.03,1.222c2.669,0,4.749-0.658,6.24-1.976c1.49-1.317,2.236-3.12,2.236-5.408V325.758z"/>
	<path fill="#7EC354" d="M151.55,302.098h4.524v37.128h-4.524V302.098z"/>
	<path fill="#7EC354" d="M179.421,328.67c0.416,2.6,1.447,4.48,3.094,5.642c1.646,1.162,4.099,1.742,7.358,1.742
		c1.629,0,2.99-0.182,4.082-0.546c1.092-0.364,1.967-0.85,2.626-1.456c0.658-0.606,1.126-1.317,1.404-2.132
		c0.277-0.814,0.416-1.673,0.416-2.574c0-0.729-0.087-1.43-0.26-2.106c-0.174-0.676-0.512-1.291-1.014-1.846
		c-0.503-0.554-1.196-1.04-2.08-1.456s-2.02-0.745-3.406-0.988l-4.68-0.832c-1.838-0.312-3.467-0.728-4.888-1.248
		c-1.422-0.52-2.626-1.187-3.614-2.002c-0.988-0.813-1.734-1.828-2.236-3.042c-0.503-1.213-0.754-2.686-0.754-4.42
		c0-1.698,0.355-3.188,1.066-4.472c0.71-1.282,1.672-2.357,2.886-3.224c1.213-0.866,2.652-1.509,4.316-1.925
		s3.466-0.624,5.408-0.624c2.461,0,4.515,0.27,6.162,0.807c1.646,0.538,2.99,1.257,4.03,2.158s1.828,1.933,2.366,3.094
		c0.537,1.162,0.944,2.349,1.222,3.562l-4.472,0.885c-0.278-1.04-0.633-1.968-1.066-2.782c-0.434-0.814-1.006-1.49-1.716-2.028
		c-0.711-0.537-1.586-0.944-2.626-1.222s-2.306-0.416-3.796-0.416c-1.699,0-3.12,0.156-4.264,0.468
		c-1.144,0.313-2.063,0.737-2.756,1.274c-0.694,0.537-1.188,1.179-1.482,1.924c-0.295,0.746-0.442,1.534-0.442,2.366
		c0,0.901,0.112,1.689,0.338,2.365c0.225,0.677,0.606,1.267,1.144,1.769c0.537,0.503,1.239,0.919,2.106,1.248
		c0.866,0.33,1.941,0.615,3.224,0.857l5.2,0.937c3.848,0.728,6.673,1.933,8.476,3.614c1.802,1.682,2.704,4.151,2.704,7.409
		c0,1.491-0.286,2.887-0.858,4.187c-0.572,1.3-1.422,2.436-2.548,3.406c-1.127,0.971-2.54,1.733-4.238,2.287
		c-1.699,0.555-3.692,0.832-5.98,0.832c-2.184,0-4.169-0.217-5.954-0.649c-1.786-0.434-3.337-1.118-4.654-2.054
		c-1.318-0.937-2.375-2.133-3.172-3.589c-0.798-1.455-1.283-3.188-1.456-5.199H179.421z"/>
	<path fill="#7EC354" d="M209.471,312.342h4.524v16.952c0,2.496,0.407,4.264,1.222,5.304c0.814,1.04,2.14,1.56,3.978,1.56
		c2.01,0,3.831-0.728,5.46-2.184c0.866-0.762,1.525-1.568,1.976-2.418c0.45-0.85,0.676-1.95,0.676-3.302v-15.912h4.524v26.884
		h-4.472v-4.16c-1.318,1.734-2.739,2.999-4.264,3.796c-1.526,0.797-3.172,1.196-4.94,1.196c-3.051,0-5.261-0.824-6.63-2.47
		c-1.37-1.646-2.054-4.116-2.054-7.41V312.342z"/>
	<path fill="#7EC354" d="M238.976,302.098h4.836v5.252h-4.836V302.098z M239.131,312.342h4.524v26.884h-4.524V312.342z"/>
	<path fill="#7EC354" d="M273.992,330.126c-0.451,3.086-1.63,5.512-3.536,7.279c-1.907,1.769-4.594,2.652-8.06,2.652
		c-2.046,0-3.857-0.33-5.434-0.988c-1.578-0.658-2.895-1.603-3.952-2.834c-1.058-1.229-1.855-2.721-2.392-4.472
		c-0.538-1.75-0.806-3.718-0.806-5.902c0-2.148,0.294-4.107,0.884-5.876c0.589-1.768,1.438-3.275,2.548-4.523
		c1.109-1.248,2.461-2.219,4.056-2.912c1.594-0.693,3.397-1.04,5.408-1.04c3.224,0,5.72,0.789,7.488,2.366s2.894,3.753,3.38,6.525
		l-4.524,0.832c-0.174-0.866-0.408-1.664-0.702-2.392c-0.295-0.729-0.702-1.36-1.222-1.898c-0.52-0.537-1.153-0.953-1.898-1.248
		c-0.746-0.294-1.638-0.441-2.678-0.441c-1.422,0-2.635,0.269-3.64,0.806c-1.006,0.538-1.829,1.283-2.47,2.236
		c-0.642,0.953-1.11,2.071-1.404,3.354c-0.295,1.283-0.442,2.652-0.442,4.108s0.138,2.825,0.416,4.107
		c0.277,1.283,0.728,2.401,1.352,3.354c0.624,0.954,1.438,1.708,2.444,2.262c1.005,0.555,2.236,0.832,3.692,0.832
		c2.184,0,3.804-0.554,4.862-1.664c1.057-1.109,1.742-2.617,2.054-4.523H273.992z"/>
	<path fill="#7EC354" d="M279.649,302.098h4.836v5.252h-4.836V302.098z M279.805,312.342h4.524v26.884h-4.524V312.342z"/>
	<path fill="#7EC354" d="M311.015,335.378c-1.11,1.49-2.392,2.644-3.848,3.458c-1.456,0.813-3.172,1.222-5.148,1.222
		s-3.684-0.364-5.122-1.092c-1.439-0.729-2.626-1.725-3.562-2.99c-0.936-1.265-1.63-2.764-2.08-4.498
		c-0.451-1.733-0.676-3.588-0.676-5.563c0-2.219,0.277-4.221,0.832-6.007c0.554-1.785,1.343-3.302,2.366-4.55
		c1.022-1.248,2.271-2.201,3.744-2.859c1.473-0.658,3.146-0.988,5.018-0.988c1.421,0,2.86,0.286,4.316,0.857
		c1.456,0.572,2.808,1.656,4.056,3.25v-13.52h4.524v37.128h-4.42V335.378z M311.067,324.978c0-2.149-0.234-3.822-0.702-5.018
		c-0.468-1.196-1.24-2.21-2.314-3.042c-0.763-0.624-1.534-1.058-2.314-1.301c-0.78-0.242-1.638-0.363-2.574-0.363
		c-1.11,0-2.141,0.19-3.094,0.571c-0.954,0.382-1.786,0.997-2.496,1.847c-0.711,0.85-1.266,1.941-1.664,3.275
		c-0.399,1.335-0.598,2.956-0.598,4.862c0,1.976,0.216,3.64,0.65,4.992c0.433,1.352,1.005,2.427,1.716,3.224
		c0.71,0.798,1.508,1.37,2.392,1.716c0.884,0.348,1.794,0.521,2.73,0.521c1.005,0,1.906-0.121,2.704-0.364
		c0.797-0.242,1.594-0.658,2.392-1.248c1.04-0.832,1.828-1.872,2.366-3.12c0.537-1.248,0.806-2.825,0.806-4.731V324.978z"/>
	<path fill="#7EC354" d="M345.761,331.686c-0.45,2.6-1.604,4.646-3.458,6.136s-4.516,2.236-7.981,2.236
		c-4.091,0-7.229-1.239-9.412-3.718s-3.276-5.937-3.276-10.374c0-2.322,0.313-4.386,0.937-6.188c0.624-1.802,1.499-3.31,2.626-4.523
		c1.126-1.214,2.47-2.141,4.03-2.782c1.56-0.642,3.258-0.962,5.096-0.962c2.08,0,3.865,0.33,5.355,0.988s2.713,1.568,3.666,2.729
		c0.953,1.162,1.664,2.54,2.133,4.134c0.468,1.595,0.701,3.346,0.701,5.252v2.288h-19.968c0,1.353,0.183,2.609,0.546,3.771
		c0.364,1.161,0.885,2.167,1.561,3.016c0.676,0.85,1.516,1.517,2.521,2.002c1.005,0.486,2.166,0.729,3.484,0.729
		c2.253,0,3.9-0.425,4.939-1.274c1.04-0.849,1.751-2.002,2.133-3.458H345.761z M341.653,323.521c0-1.282-0.139-2.444-0.416-3.484
		c-0.278-1.039-0.711-1.932-1.3-2.678c-0.59-0.745-1.353-1.326-2.288-1.742c-0.937-0.416-2.063-0.624-3.38-0.624
		c-2.393,0-4.256,0.729-5.59,2.185c-1.335,1.456-2.124,3.57-2.366,6.344H341.653z"/>
	<path fill="#7EC354" d="M365.729,302.098h12.428c2.738,0,5,0.295,6.786,0.884c1.785,0.59,3.188,1.387,4.212,2.393
		c1.021,1.006,1.732,2.176,2.132,3.51c0.398,1.335,0.598,2.748,0.598,4.238c0,1.56-0.208,3.051-0.624,4.472
		c-0.416,1.422-1.144,2.67-2.184,3.744s-2.444,1.924-4.212,2.548c-1.769,0.624-4.004,0.936-6.708,0.936h-7.696v14.404h-4.731
		V302.098z M378.104,320.766c1.802,0,3.293-0.173,4.472-0.521c1.178-0.346,2.097-0.849,2.756-1.508
		c0.658-0.658,1.118-1.447,1.378-2.365c0.26-0.919,0.391-1.95,0.391-3.095c0-1.178-0.14-2.218-0.416-3.12
		c-0.278-0.9-0.764-1.646-1.456-2.235c-0.694-0.589-1.621-1.031-2.782-1.326c-1.162-0.294-2.626-0.442-4.395-0.442h-7.592v14.612
		H378.104z"/>
	<path fill="#7EC354" d="M397.411,312.342h4.472v4.16c1.005-1.49,2.184-2.635,3.536-3.433c1.352-0.797,2.79-1.195,4.315-1.195
		c0.937,0,1.733,0.069,2.393,0.208l-0.572,4.212c-0.347-0.069-0.693-0.13-1.04-0.183c-0.347-0.052-0.728-0.078-1.144-0.078
		c-0.832,0-1.683,0.148-2.548,0.442c-0.867,0.295-1.683,0.789-2.444,1.482c-0.763,0.658-1.361,1.422-1.794,2.287
		c-0.434,0.867-0.65,1.872-0.65,3.017v15.964h-4.523V312.342z"/>
	<path fill="#7EC354" d="M439.12,331.686c-0.45,2.6-1.604,4.646-3.458,6.136s-4.516,2.236-7.981,2.236
		c-4.091,0-7.229-1.239-9.412-3.718s-3.276-5.937-3.276-10.374c0-2.322,0.313-4.386,0.937-6.188c0.624-1.802,1.499-3.31,2.626-4.523
		c1.126-1.214,2.47-2.141,4.03-2.782c1.56-0.642,3.258-0.962,5.096-0.962c2.08,0,3.865,0.33,5.355,0.988s2.713,1.568,3.666,2.729
		c0.953,1.162,1.664,2.54,2.133,4.134c0.468,1.595,0.701,3.346,0.701,5.252v2.288h-19.968c0,1.353,0.183,2.609,0.546,3.771
		c0.364,1.161,0.885,2.167,1.561,3.016c0.676,0.85,1.516,1.517,2.521,2.002c1.005,0.486,2.166,0.729,3.484,0.729
		c2.253,0,3.9-0.425,4.939-1.274c1.04-0.849,1.751-2.002,2.133-3.458H439.12z M435.013,323.521c0-1.282-0.139-2.444-0.416-3.484
		c-0.278-1.039-0.711-1.932-1.3-2.678c-0.59-0.745-1.353-1.326-2.288-1.742c-0.937-0.416-2.063-0.624-3.38-0.624
		c-2.393,0-4.256,0.729-5.59,2.185c-1.335,1.456-2.124,3.57-2.366,6.344H435.013z"/>
	<path fill="#7EC354" d="M442.027,312.342h5.252l8.008,21.84l8.164-21.84h4.992l-10.816,26.884h-4.836L442.027,312.342z"/>
	<path fill="#7EC354" d="M494.806,331.686c-0.45,2.6-1.604,4.646-3.458,6.136s-4.516,2.236-7.981,2.236
		c-4.091,0-7.229-1.239-9.412-3.718s-3.276-5.937-3.276-10.374c0-2.322,0.313-4.386,0.937-6.188c0.624-1.802,1.499-3.31,2.626-4.523
		c1.126-1.214,2.47-2.141,4.03-2.782c1.56-0.642,3.258-0.962,5.096-0.962c2.08,0,3.865,0.33,5.355,0.988s2.713,1.568,3.666,2.729
		c0.953,1.162,1.664,2.54,2.133,4.134c0.468,1.595,0.701,3.346,0.701,5.252v2.288h-19.968c0,1.353,0.183,2.609,0.546,3.771
		c0.364,1.161,0.885,2.167,1.561,3.016c0.676,0.85,1.516,1.517,2.521,2.002c1.005,0.486,2.166,0.729,3.484,0.729
		c2.253,0,3.9-0.425,4.939-1.274c1.04-0.849,1.751-2.002,2.133-3.458H494.806z M490.698,323.521c0-1.282-0.139-2.444-0.416-3.484
		c-0.278-1.039-0.711-1.932-1.3-2.678c-0.59-0.745-1.353-1.326-2.288-1.742c-0.937-0.416-2.063-0.624-3.38-0.624
		c-2.393,0-4.256,0.729-5.59,2.185c-1.335,1.456-2.124,3.57-2.366,6.344H490.698z"/>
	<path fill="#7EC354" d="M501.432,312.342h4.472v4.107c1.317-1.768,2.773-3.032,4.368-3.796c1.594-0.762,3.275-1.144,5.044-1.144
		c3.05,0,5.312,0.832,6.786,2.496c1.473,1.664,2.21,4.107,2.21,7.332v17.888h-4.524v-17.004c0-2.496-0.451-4.255-1.352-5.278
		c-0.902-1.021-2.288-1.534-4.16-1.534c-1.006,0-2.002,0.174-2.99,0.521s-1.881,0.901-2.678,1.664
		c-0.867,0.763-1.526,1.568-1.977,2.418s-0.676,1.95-0.676,3.302v15.912h-4.523V312.342z"/>
	<path fill="#7EC354" d="M532.844,315.93h-4.16v-3.588h4.16v-7.332h4.524v7.332h7.124v3.588h-7.124v15.756
		c0,1.318,0.294,2.375,0.884,3.172c0.589,0.798,1.49,1.196,2.704,1.196c0.762,0,1.43-0.052,2.002-0.156
		c0.572-0.104,1.1-0.242,1.586-0.416l0.78,3.484c-0.694,0.243-1.448,0.441-2.263,0.598s-1.776,0.234-2.886,0.234
		c-1.525,0-2.756-0.227-3.692-0.676c-0.936-0.45-1.682-1.093-2.235-1.925c-0.556-0.832-0.928-1.819-1.118-2.964
		c-0.191-1.144-0.286-2.392-0.286-3.744V315.93z"/>
	<path fill="#7EC354" d="M549.82,302.098h4.836v5.252h-4.836V302.098z M549.977,312.342h4.524v26.884h-4.524V312.342z"/>
	<path fill="#7EC354" d="M573.604,340.058c-2.046,0-3.866-0.33-5.46-0.988c-1.595-0.658-2.947-1.594-4.056-2.808
		c-1.11-1.213-1.959-2.704-2.548-4.472c-0.59-1.769-0.885-3.744-0.885-5.929c0-2.184,0.313-4.16,0.937-5.928
		s1.508-3.276,2.652-4.524c1.144-1.248,2.521-2.21,4.134-2.886c1.611-0.676,3.405-1.014,5.382-1.014c2.01,0,3.813,0.33,5.408,0.988
		c1.594,0.658,2.955,1.604,4.082,2.834c1.126,1.23,1.983,2.713,2.573,4.445c0.59,1.734,0.885,3.692,0.885,5.876
		c0,2.219-0.305,4.212-0.91,5.98c-0.607,1.768-1.474,3.275-2.601,4.523s-2.505,2.21-4.134,2.887
		C577.435,339.72,575.615,340.058,573.604,340.058z M573.656,336.313c1.456,0,2.704-0.26,3.744-0.78
		c1.04-0.52,1.898-1.248,2.574-2.184s1.17-2.054,1.482-3.354c0.312-1.3,0.468-2.729,0.468-4.289c0-1.525-0.156-2.93-0.468-4.213
		c-0.313-1.281-0.807-2.383-1.482-3.302c-0.676-0.918-1.534-1.638-2.574-2.158c-1.04-0.52-2.288-0.779-3.744-0.779
		s-2.695,0.26-3.718,0.779c-1.022,0.521-1.872,1.24-2.548,2.158c-0.676,0.919-1.17,2.021-1.482,3.302
		c-0.312,1.283-0.468,2.704-0.468,4.265c0,1.56,0.156,2.981,0.468,4.264c0.313,1.283,0.798,2.393,1.456,3.328
		s1.509,1.664,2.549,2.184C570.953,336.054,572.2,336.313,573.656,336.313z"/>
	<path fill="#7EC354" d="M592.882,312.342h4.472v4.107c1.317-1.768,2.773-3.032,4.368-3.796c1.594-0.762,3.275-1.144,5.044-1.144
		c3.05,0,5.312,0.832,6.786,2.496c1.473,1.664,2.21,4.107,2.21,7.332v17.888h-4.524v-17.004c0-2.496-0.451-4.255-1.352-5.278
		c-0.902-1.021-2.288-1.534-4.16-1.534c-1.006,0-2.002,0.174-2.99,0.521s-1.881,0.901-2.678,1.664
		c-0.867,0.763-1.526,1.568-1.977,2.418s-0.676,1.95-0.676,3.302v15.912h-4.523V312.342z"/>
</g>
</svg>
